<svg width="0" height="0" class="hidden">
  <symbol  xmlns="http://www.w3.org/2000/svg" viewBox="0 0 26 26" id="tik">
    <circle cx="12.9999" cy="13" r="11.6667" stroke="#0CAF3A" stroke-width="2.1"></circle>
  </symbol>
  <symbol  xmlns="http://www.w3.org/2000/svg" viewBox="0 0 26 26" id="return">
    <path fill-rule="evenodd" clip-rule="evenodd" d="M0.458252 13C0.458252 6.07341 6.07335 0.458313 12.9999 0.458313C19.9265 0.458313 25.5416 6.07341 25.5416 13C25.5416 19.9266 19.9265 25.5416 12.9999 25.5416C6.07335 25.5416 0.458252 19.9266 0.458252 13ZM12.9999 2.20831C7.03985 2.20831 2.20825 7.03991 2.20825 13C2.20825 18.9601 7.03985 23.7916 12.9999 23.7916C18.96 23.7916 23.7916 18.9601 23.7916 13C23.7916 7.03991 18.96 2.20831 12.9999 2.20831ZM9.70575 10.375L10.6454 9.58719C11.0157 9.27672 11.0642 8.72483 10.7538 8.35451C10.4433 7.98418 9.89142 7.93567 9.5211 8.24614L7.47094 9.96494C7.07761 10.2947 6.87897 10.7646 6.87503 11.236C6.87496 11.2407 6.87492 11.2453 6.87492 11.25C6.87492 11.2544 6.87495 11.2588 6.87502 11.2633C6.87859 11.7351 7.07723 12.2056 7.47094 12.5356L9.5212 14.2539C9.89156 14.5644 10.4434 14.5158 10.7539 14.1454C11.0643 13.775 11.0157 13.2231 10.6453 12.9127L9.70543 12.125H15.0416C16.1692 12.125 17.0833 13.0391 17.0833 14.1666C17.0833 15.2942 16.1692 16.2083 15.0416 16.2083H12.7083C12.225 16.2083 11.8333 16.6001 11.8333 17.0833C11.8333 17.5666 12.225 17.9583 12.7083 17.9583H15.0416C17.1357 17.9583 18.8333 16.2607 18.8333 14.1666C18.8333 12.0726 17.1357 10.375 15.0416 10.375H9.70575Z"></path>
  </symbol>
  <symbol  xmlns="http://www.w3.org/2000/svg" viewBox="0 0 27 27" id="time">
    <circle cx="13.5" cy="13.4687" r="11.6667" stroke="#2E7AF1" stroke-width="1.75"></circle>
    <path d="M13.5 8.80206V13.1565C13.5 13.3516 13.5975 13.5337 13.7598 13.6419L17 15.8021" stroke="#2E7AF1" stroke-width="1.75" stroke-linecap="round"></path>
  </symbol>
  <symbol  xmlns="http://www.w3.org/2000/svg" viewBox="0 0 26 26" id="close">
    <circle cx="12.9999" cy="13.0273" r="11.6667" stroke="#ED4545" stroke-width="1.75"></circle>
  </symbol>
</svg>