<svg width="0" height="0" class="hidden">
  <symbol fill="none" xmlns="http://www.w3.org/2000/svg" viewBox="0 0 22 21" id="comments">
    <path d="M5.25 10.25C5.25 9.83579 5.58579 9.5 6 9.5H12C12.4142 9.5 12.75 9.83579 12.75 10.25C12.75 10.6642 12.4142 11 12 11H6C5.58579 11 5.25 10.6642 5.25 10.25Z" fill="#2F0D0C"></path>
    <path d="M6 5.5C5.58579 5.5 5.25 5.83579 5.25 6.25C5.25 6.66421 5.58579 7 6 7H8.5C8.91421 7 9.25 6.66421 9.25 6.25C9.25 5.83579 8.91421 5.5 8.5 5.5H6Z" fill="#2F0D0C"></path>
    <path fill-rule="evenodd" clip-rule="evenodd" d="M0.25 4.5C0.25 2.15279 2.15279 0.25 4.5 0.25H17.5C19.8472 0.25 21.75 2.15279 21.75 4.5V12.5C21.75 14.8472 19.8472 16.75 17.5 16.75H11.7249C11.4597 16.75 11.2053 16.8554 11.0178 17.0429L8.51219 19.5485C7.24147 20.8192 5.06733 20.1609 4.7149 18.3987L4.49263 17.2874C4.43013 16.9749 4.15576 16.75 3.83708 16.75C1.85599 16.75 0.25 15.144 0.25 13.1629V4.5ZM4.5 1.75C2.98122 1.75 1.75 2.98122 1.75 4.5V13.1629C1.75 14.3156 2.68442 15.25 3.83708 15.25C4.87078 15.25 5.76078 15.9796 5.9635 16.9933L6.18577 18.1046C6.30324 18.692 7.02796 18.9114 7.45153 18.4878L9.95711 15.9822C10.4259 15.5134 11.0618 15.25 11.7249 15.25H17.5C19.0188 15.25 20.25 14.0188 20.25 12.5V4.5C20.25 2.98122 19.0188 1.75 17.5 1.75H4.5Z" fill="#2F0D0C"></path>
  </symbol>
  <symbol fill="none" xmlns="http://www.w3.org/2000/svg" viewBox="0 0 20 20" id="exit">
    <path d="M2.25 4.40064C2.25 2.73418 3.72038 1.45069 5.37156 1.67585L9.37156 2.22131C10.7341 2.40711 11.75 3.5709 11.75 4.94609V6.50001C11.75 6.91422 12.0858 7.25001 12.5 7.25001C12.9142 7.25001 13.25 6.91422 13.25 6.50001V4.94609C13.25 2.82079 11.68 1.02222 9.57423 0.735063L5.57423 0.189608C3.02241 -0.158368 0.75 1.8252 0.75 4.40064V15.6044C0.75 18.4809 3.5476 20.5265 6.28862 19.6544L10.2886 18.3816C12.0523 17.8205 13.25 16.1825 13.25 14.3317V13.5C13.25 13.0858 12.9142 12.75 12.5 12.75C12.0858 12.75 11.75 13.0858 11.75 13.5V14.3317C11.75 15.5293 10.975 16.5891 9.83381 16.9523L5.83381 18.225C4.06021 18.7893 2.25 17.4657 2.25 15.6044V4.40064Z" fill="#190D03"></path>
    <path d="M14.9252 6.51825C15.1913 6.2008 15.6643 6.15914 15.9818 6.42521L18.6178 8.63455C19.4608 9.34103 19.4608 10.6583 18.6178 11.3648L15.9819 13.5748C15.6644 13.8409 15.1914 13.7993 14.9253 13.4819C14.6592 13.1644 14.7008 12.6914 15.0182 12.4253L17.0164 10.75H7C6.58579 10.75 6.25 10.4142 6.25 10C6.25 9.58579 6.58579 9.25 7 9.25H17.017L15.0183 7.57483C14.7008 7.30875 14.6591 6.83571 14.9252 6.51825Z" fill="#190D03"></path>
  </symbol>
  <symbol fill="none" xmlns="http://www.w3.org/2000/svg" viewBox="0 0 22 21" id="home">
    <path d="M15.1746 12.8279C15.3557 12.4554 15.2005 12.0066 14.828 11.8255C14.4555 11.6444 14.0067 11.7996 13.8256 12.1721C13.7651 12.2964 13.4616 12.7071 12.9263 13.0899C12.4093 13.4596 11.7486 13.75 11.0001 13.75C9.42788 13.75 8.58932 12.8016 8.12945 12.0921C7.90416 11.7445 7.43975 11.6453 7.09217 11.8706C6.74458 12.0959 6.64543 12.5603 6.87072 12.9079C7.44789 13.7984 8.68341 15.25 11.0001 15.25C12.144 15.25 13.1037 14.8071 13.7987 14.3101C14.4755 13.8262 14.9758 13.2369 15.1746 12.8279Z" fill="black"></path>
    <path fill-rule="evenodd" clip-rule="evenodd" d="M12.5069 0.58041L13.3816 1.15338L21.4088 6.37105C21.7561 6.59679 21.8547 7.06133 21.6289 7.40862C21.4032 7.75592 20.9386 7.85446 20.5913 7.62871L19.7126 7.0575C19.7374 7.24309 19.7501 7.43144 19.7501 7.62149V16C19.7501 18.3473 17.8473 20.25 15.5001 20.25H6.50009C4.15288 20.25 2.25009 18.3473 2.25009 16V7.62149C2.25009 7.43144 2.26279 7.24309 2.28762 7.0575L1.40883 7.62871C1.06153 7.85446 0.596997 7.75592 0.371255 7.40862C0.145514 7.06133 0.244052 6.59679 0.591347 6.37105L8.61851 1.15339L9.49329 0.58041C10.4084 -0.0189907 11.5918 -0.0189907 12.5069 0.58041ZM11.6813 1.8372L12.5619 2.40958L17.0069 5.32104C17.7827 5.82918 18.2501 6.6941 18.2501 7.62149V16C18.2501 17.5188 17.0189 18.75 15.5001 18.75H6.50009C4.9813 18.75 3.75009 17.5188 3.75009 16V7.62149C3.75009 6.6941 4.21751 5.82918 4.99329 5.32104L9.43824 2.4096L10.3189 1.8372C10.7331 1.56794 11.2671 1.56794 11.6813 1.8372Z" fill="white"></path>
  </symbol>
  <symbol fill="none" xmlns="http://www.w3.org/2000/svg" viewBox="0 0 24 24" id="notification">
    <path fill-rule="evenodd" clip-rule="evenodd" d="M12.0002 2.25C8.32001 2.25 5.25022 5.06847 5.25022 8.64153V9.69723C5.25022 10.7247 4.9461 11.7291 4.37618 12.584C4.36613 12.599 4.35663 12.6145 4.3477 12.6302L3.96906 13.2984C3.47894 14.1633 3.31926 15.1751 3.51495 16.1479C3.52959 16.2207 3.55335 16.3222 3.59151 16.4448C4.05486 17.9332 5.50116 18.6986 6.69011 19.0567C7.04543 19.1637 7.42267 19.2581 7.81665 19.3398L7.86793 19.4217C8.96229 21.1684 10.4349 22.2 12.0508 22.2C13.6667 22.2 15.1393 21.1684 16.2336 19.4217L16.3004 19.3152C16.6543 19.2388 16.9941 19.1521 17.3159 19.055C18.5204 18.6916 19.9095 17.9122 20.3923 16.4556C20.4104 16.4008 20.4255 16.3522 20.437 16.315C20.45 16.2731 20.4556 16.2551 20.4596 16.2436C20.4702 16.2126 20.4788 16.1809 20.4853 16.1488C20.6824 15.175 20.5212 14.1628 20.0314 13.2984L19.6527 12.6302C19.6438 12.6145 19.6343 12.599 19.6243 12.584C19.0543 11.7291 18.7502 10.7247 18.7502 9.69723V8.64153C18.7502 5.06847 15.6804 2.25 12.0002 2.25ZM14.1888 19.6352C12.7973 19.7681 11.3186 19.7715 9.92262 19.6455C10.638 20.3892 11.3824 20.7 12.0508 20.7C12.7223 20.7 13.4704 20.3863 14.1888 19.6352ZM6.75022 8.64153C6.75022 5.98312 9.0595 3.75 12.0002 3.75C14.9409 3.75 17.2502 5.98312 17.2502 8.64153V9.69723C17.2502 11.0115 17.6365 12.2965 18.3607 13.3927L18.7263 14.0379C19.0312 14.576 19.136 15.204 19.0229 15.8111L19.0067 15.863L19.0041 15.8714C18.9928 15.9079 18.9815 15.9442 18.9684 15.9836C18.7159 16.7455 17.9157 17.3073 16.8826 17.6189C14.1506 18.4432 9.85676 18.4437 7.12262 17.6204C6.06682 17.3024 5.2572 16.749 5.02372 15.9989C5.00291 15.9321 4.99137 15.8813 4.98549 15.8521C4.8606 15.2313 4.9628 14.5873 5.2741 14.0379L5.63973 13.3927C6.36395 12.2965 6.75022 11.0115 6.75022 9.69723V8.64153Z" fill="#190D03"></path>
    <path d="M20.3876 8.2512C20.8012 8.27461 21.1174 8.62884 21.094 9.04239C21.06 9.64315 21.0781 10.0599 21.1743 10.4179C21.2661 10.7597 21.4425 11.0956 21.8042 11.4999C22.0804 11.8086 22.054 12.2827 21.7453 12.5589C21.4366 12.8351 20.9625 12.8088 20.6863 12.5001C20.198 11.9544 19.889 11.4154 19.7256 10.8071C19.5666 10.2151 19.5597 9.60685 19.5964 8.95761C19.6198 8.54406 19.9741 8.22779 20.3876 8.2512Z" fill="#190D03"></path>
    <path d="M4.40272 8.95761C4.37931 8.54406 4.02508 8.22779 3.61153 8.2512C3.19798 8.27461 2.88171 8.62884 2.90512 9.04239C2.93912 9.64315 2.92105 10.0599 2.82488 10.4179C2.73308 10.7597 2.5567 11.0956 2.19498 11.4999C1.91879 11.8086 1.94513 12.2827 2.25382 12.5589C2.56251 12.8351 3.03665 12.8088 3.31284 12.5001C3.80113 11.9544 4.11012 11.4154 4.27352 10.8071C4.43255 10.2151 4.43947 9.60685 4.40272 8.95761Z" fill="#190D03"></path>
  </symbol>
  <symbol fill="none" xmlns="http://www.w3.org/2000/svg" viewBox="0 0 19 21" id="proInfo">
    <path fill-rule="evenodd" clip-rule="evenodd" d="M8.00017 0.25C5.37682 0.25 3.25017 2.37665 3.25017 5C3.25017 7.62335 5.37682 9.75 8.00017 9.75C10.6235 9.75 12.7502 7.62335 12.7502 5C12.7502 2.37665 10.6235 0.25 8.00017 0.25ZM4.75017 5C4.75017 3.20507 6.20524 1.75 8.00017 1.75C9.79509 1.75 11.2502 3.20507 11.2502 5C11.2502 6.79493 9.79509 8.25 8.00017 8.25C6.20524 8.25 4.75017 6.79493 4.75017 5Z" fill="#2F0D0C"></path>
    <path d="M2.77854 13.8591C3.18282 13.1719 3.92055 12.75 4.71781 12.75H10.5021C10.9163 12.75 11.2521 12.4142 11.2521 12C11.2521 11.5858 10.9163 11.25 10.5021 11.25H4.71781C3.38904 11.25 2.15949 11.9532 1.48569 13.0984L0.823923 14.2233C0.301605 15.111 0.077551 16.1478 0.291457 17.0798C0.51471 18.0525 1.20635 18.8451 2.33827 19.1375C4.20472 19.6197 6.68445 19.8118 9.02739 19.7328C9.44137 19.7188 9.76565 19.3719 9.7517 18.958C9.73774 18.544 9.39083 18.2197 8.97685 18.2336C6.72508 18.3096 4.39809 18.1204 2.71345 17.6852C2.13789 17.5365 1.85464 17.1852 1.75344 16.7443C1.6429 16.2626 1.74483 15.6161 2.11677 14.9839L2.77854 13.8591Z" fill="#2F0D0C"></path>
    <path fill-rule="evenodd" clip-rule="evenodd" d="M17.1289 18.318C17.5215 17.7252 17.7502 17.0143 17.7502 16.25C17.7502 14.1789 16.0712 12.5 14.0002 12.5C11.9291 12.5 10.2502 14.1789 10.2502 16.25C10.2502 18.3211 11.9291 20 14.0002 20C14.7645 20 15.4754 19.7713 16.0682 19.3787L16.9702 20.2807C17.2631 20.5736 17.738 20.5736 18.0309 20.2807C18.3237 19.9878 18.3237 19.5129 18.0309 19.22L17.1289 18.318ZM11.7502 16.25C11.7502 15.0074 12.7575 14 14.0002 14C15.2428 14 16.2502 15.0074 16.2502 16.25C16.2502 17.4926 15.2428 18.5 14.0002 18.5C12.7575 18.5 11.7502 17.4926 11.7502 16.25Z" fill="#2F0D0C"></path>
  </symbol>
  <symbol fill="none" xmlns="http://www.w3.org/2000/svg" viewBox="0 0 20 23" id="User">
    <circle cx="4.66667" cy="4.66667" r="4.66667" transform="matrix(-1 0 0 1 14.668 1.5)" stroke="#171717" stroke-width="1.75"></circle>
    <path d="M1.83203 17.7565C1.83203 16.7527 2.46303 15.8573 3.40831 15.5197V15.5197C7.67008 13.9977 12.3273 13.9977 16.5891 15.5197V15.5197C17.5344 15.8573 18.1654 16.7527 18.1654 17.7565V19.2912C18.1654 20.6766 16.9384 21.7407 15.567 21.5448L14.4535 21.3857C11.4986 20.9636 8.49877 20.9636 5.54393 21.3857L4.43044 21.5448C3.05902 21.7407 1.83203 20.6766 1.83203 19.2912V17.7565Z" stroke="#171717" stroke-width="1.75"></path>
  </symbol>
</svg>